# Blender 4.0.1
# www.blender.org
mtllib blade.mtl
o Cube
v 0.000000 -0.500000 1.000000
v 0.000000 0.500000 1.000000
v 0.000000 -0.500000 -1.000000
v 0.000000 0.500000 -1.000000
v 0.698885 0.000000 0.702307
v 0.698885 0.000000 0.702307
v 0.698885 0.000000 -0.695464
v 0.698885 0.000000 -0.695464
v 0.000000 -0.500000 0.000000
v 0.000000 0.500000 0.000000
v 1.000000 0.000000 0.000000
v 1.000000 0.000000 0.000000
vn -1.0000 -0.0000 -0.0000
vn 0.3995 -0.0000 -0.9167
vn -0.0000 1.0000 -0.0000
vn 0.3919 -0.0000 0.9200
vn 0.5170 -0.8511 0.0914
vn 0.5170 0.8511 0.0914
vn 0.5173 0.8509 -0.0919
vn 0.5173 -0.8509 -0.0919
vt 0.375000 0.125000
vt 0.625000 0.125000
vt 0.625000 0.250000
vt 0.375000 0.250000
vt 0.625000 0.500000
vt 0.375000 0.500000
vt 0.375000 0.625000
vt 0.625000 0.625000
vt 0.625000 0.750000
vt 0.375000 0.750000
vt 0.625000 1.000000
vt 0.375000 1.000000
vt 0.125000 0.625000
vt 0.125000 0.750000
vt 0.875000 0.625000
vt 0.875000 0.750000
vt 0.875000 0.500000
vt 0.125000 0.500000
vt 0.375000 0.000000
vt 0.625000 0.000000
s 0
f 9/1/1 10/2/1 4/3/1 3/4/1
f 3/4/2 4/3/2 8/5/2 7/6/2
f 11/7/3 12/8/3 6/9/3 5/10/3
f 5/10/4 6/9/4 2/11/4 1/12/4
f 9/13/5 11/7/5 5/10/5 1/14/5
f 12/8/6 10/15/6 2/16/6 6/9/6
f 8/5/7 4/17/7 10/15/7 12/8/7
f 3/18/8 7/6/8 11/7/8 9/13/8
f 7/6/3 8/5/3 12/8/3 11/7/3
f 1/19/1 2/20/1 10/2/1 9/1/1
