# Blender 4.0.1
# www.blender.org
mtllib shield.mtl
o Cube
v -0.071832 -0.200000 0.136068
v -0.200000 0.200000 0.136719
v -0.094126 -0.094126 0.000000
v -0.094126 0.094126 0.000000
v 0.071832 -0.200000 0.136068
v 0.200000 0.200000 0.136719
v 0.094126 -0.094126 0.000000
v 0.094126 0.094126 0.000000
v -0.071832 -0.200000 0.062437
v -0.200000 0.200000 0.062184
v 0.071832 -0.200000 0.062437
v 0.200000 0.200000 0.062184
v -0.200000 0.000000 0.136719
v -0.094126 0.000000 0.000000
v 0.094126 0.000000 0.000000
v 0.200000 0.000000 0.136719
v 0.200000 0.000000 0.062184
v -0.200000 0.000000 0.062184
v -0.200000 0.100000 0.136719
v -0.094126 0.047063 0.000000
v 0.094126 0.047063 0.000000
v 0.200000 0.100000 0.136719
v 0.200000 0.100000 0.062184
v -0.200000 0.100000 0.062184
v -0.094126 -0.047063 0.000000
v 0.094126 -0.047063 0.000000
v 0.150377 -0.100000 0.136719
v 0.150377 -0.100000 0.062184
v -0.150377 -0.100000 0.062184
v -0.150377 -0.100000 0.136719
v 0.000000 -0.094126 0.000000
v 0.000000 0.094126 0.000000
v 0.000000 -0.241964 0.136068
v 0.000000 0.237026 0.136719
v 0.000000 0.237026 0.062184
v 0.000000 -0.241964 0.062437
v 0.000000 0.100000 0.136719
v 0.000000 -0.100000 0.136719
v 0.047063 0.094126 0.000000
v 0.035916 -0.225682 0.136068
v 0.100000 0.221553 0.062184
v 0.047063 -0.094126 0.000000
v 0.100000 0.221553 0.136719
v 0.035916 -0.225682 0.062437
v 0.100000 0.000000 0.136719
v 0.100000 0.100000 0.136719
v 0.100000 -0.100000 0.136719
v -0.047063 -0.094126 0.000000
v -0.100000 0.221553 0.136719
v -0.035916 -0.225682 0.062437
v -0.100000 0.000000 0.136719
v -0.100000 0.100000 0.136719
v -0.100000 -0.100000 0.136719
v -0.047063 0.094126 0.000000
v -0.035916 -0.225682 0.136068
v -0.100000 0.221553 0.062184
vn -0.5064 -0.0000 -0.8623
vn 1.0000 -0.0000 -0.0000
vn -0.0000 -0.0000 1.0000
vn 0.5817 -0.8134 -0.0000
vn -0.2107 0.9776 -0.0000
vn -0.0638 0.4353 -0.8980
vn 0.1475 -0.4766 -0.8667
vn 0.5064 -0.0000 -0.8623
vn -1.0000 -0.0000 -0.0000
vn -0.8958 -0.4445 -0.0000
vn 0.5583 -0.1884 -0.8080
vn 0.8958 -0.4445 -0.0000
vn -0.5583 -0.1884 -0.8080
vn -0.6743 -0.3612 -0.6441
vn 0.7864 -0.6177 -0.0000
vn -0.0021 -0.0071 1.0000
vn 0.6743 -0.3612 -0.6441
vn -0.7864 -0.6177 -0.0000
vn 0.0006 -0.0050 1.0000
vn -0.0803 -0.4094 -0.9088
vn 0.0432 0.4106 -0.9108
vn 0.1529 0.9882 -0.0000
vn -0.4129 -0.9108 -0.0000
vn 0.2107 0.9776 -0.0000
vn 0.0638 0.4353 -0.8980
vn 0.0021 -0.0071 1.0000
vn 0.0803 -0.4094 -0.9088
vn 0.4129 -0.9108 -0.0000
vn -0.5817 -0.8134 -0.0000
vn -0.1475 -0.4766 -0.8667
vn -0.0006 -0.0050 1.0000
vn -0.0432 0.4106 -0.9108
vn -0.1529 0.9882 -0.0000
vn -0.0000 -0.0000 -1.0000
vt 0.562500 0.125000
vt 0.625000 0.125000
vt 0.625000 0.250000
vt 0.562500 0.250000
vt 0.562500 0.625000
vt 0.625000 0.625000
vt 0.625000 0.750000
vt 0.562500 0.750000
vt 0.562500 0.937500
vt 0.625000 0.937500
vt 0.625000 1.000000
vt 0.562500 1.000000
vt 0.312500 0.625000
vt 0.375000 0.625000
vt 0.375000 0.750000
vt 0.312500 0.750000
vt 0.812500 0.625000
vt 0.875000 0.625000
vt 0.875000 0.750000
vt 0.812500 0.750000
vt 0.812500 0.500000
vt 0.875000 0.500000
vt 0.312500 0.500000
vt 0.375000 0.500000
vt 0.562500 0.500000
vt 0.625000 0.500000
vt 0.562500 0.000000
vt 0.625000 0.000000
vt 0.437500 0.000000
vt 0.500000 0.000000
vt 0.500000 0.125000
vt 0.437500 0.125000
vt 0.437500 0.500000
vt 0.500000 0.500000
vt 0.500000 0.625000
vt 0.437500 0.625000
vt 0.437500 0.937500
vt 0.500000 0.937500
vt 0.500000 1.000000
vt 0.437500 1.000000
vt 0.500000 0.750000
vt 0.437500 0.750000
vt 0.500000 0.250000
vt 0.437500 0.250000
vt 0.375000 0.125000
vt 0.375000 0.250000
vt 0.375000 0.937500
vt 0.375000 1.000000
vt 0.375000 0.000000
vt 0.375000 0.812500
vt 0.437500 0.812500
vt 0.437500 0.875000
vt 0.375000 0.875000
vt 0.187500 0.500000
vt 0.250000 0.500000
vt 0.250000 0.625000
vt 0.187500 0.625000
vt 0.687500 0.500000
vt 0.750000 0.500000
vt 0.750000 0.625000
vt 0.687500 0.625000
vt 0.750000 0.750000
vt 0.687500 0.750000
vt 0.250000 0.750000
vt 0.187500 0.750000
vt 0.562500 0.812500
vt 0.625000 0.812500
vt 0.625000 0.875000
vt 0.562500 0.875000
vt 0.500000 0.812500
vt 0.125000 0.625000
vt 0.125000 0.750000
vt 0.125000 0.500000
vt 0.625000 0.437500
vt 0.375000 0.437500
vt 0.375000 0.375000
vt 0.375000 0.312500
vt 0.625000 0.312500
vt 0.625000 0.375000
s 0
f 24/1/1 10/2/1 4/3/1 20/4/1
f 23/5/2 12/6/2 6/7/2 22/8/2
f 52/9/3 49/10/3 2/11/3 19/12/3
f 44/13/4 11/14/4 5/15/4 40/16/4
f 56/17/5 10/18/5 2/19/5 49/20/5
f 54/21/6 4/22/6 10/18/6 56/17/6
f 42/23/7 7/24/7 11/14/7 44/13/7
f 21/25/8 8/26/8 12/6/8 23/5/8
f 19/27/9 2/28/9 10/2/9 24/1/9
f 30/29/10 13/30/10 18/31/10 29/32/10
f 26/33/11 15/34/11 17/35/11 28/36/11
f 53/37/3 51/38/3 13/39/3 30/40/3
f 28/36/12 17/35/12 16/41/12 27/42/12
f 29/32/13 18/31/13 14/43/13 25/44/13
f 13/30/9 19/27/9 24/1/9 18/31/9
f 15/34/8 21/25/8 23/5/8 17/35/8
f 51/38/3 52/9/3 19/12/3 13/39/3
f 17/35/2 23/5/2 22/8/2 16/41/2
f 18/31/1 24/1/1 20/4/1 14/43/1
f 9/45/14 29/32/14 25/44/14 3/46/14
f 11/14/15 28/36/15 27/42/15 5/15/15
f 55/47/16 53/37/16 30/40/16 1/48/16
f 7/24/17 26/33/17 28/36/17 11/14/17
f 1/49/18 30/29/18 29/32/18 9/45/18
f 40/50/19 47/51/19 38/52/19 33/53/19
f 48/54/20 31/55/20 36/56/20 50/57/20
f 39/58/21 32/59/21 35/60/21 41/61/21
f 41/61/22 35/60/22 34/62/22 43/63/22
f 50/57/23 36/56/23 33/64/23 55/65/23
f 46/66/3 43/67/3 34/68/3 37/69/3
f 22/8/3 6/7/3 43/67/3 46/66/3
f 12/6/24 41/61/24 43/63/24 6/7/24
f 8/26/25 39/58/25 41/61/25 12/6/25
f 27/42/3 16/41/3 45/70/3 47/51/3
f 16/41/3 22/8/3 46/66/3 45/70/3
f 5/15/26 27/42/26 47/51/26 40/50/26
f 31/55/27 42/23/27 44/13/27 36/56/27
f 36/56/28 44/13/28 40/16/28 33/64/28
f 9/71/29 50/57/29 55/65/29 1/72/29
f 3/73/30 48/54/30 50/57/30 9/71/30
f 33/53/31 38/52/31 53/37/31 55/47/31
f 32/59/32 54/21/32 56/17/32 35/60/32
f 35/60/33 56/17/33 49/20/33 34/62/33
f 37/69/3 34/68/3 49/10/3 52/9/3
f 39/74/34 8/26/34 21/25/34 15/34/34 26/33/34 7/24/34 42/75/34 31/76/34 48/77/34 3/46/34 25/44/34 14/43/34 20/4/34 4/3/34 54/78/34 32/79/34
f 45/70/3 46/66/3 37/69/3 52/9/3 51/38/3 53/37/3 38/52/3 47/51/3
